<svg width="87" height="32" viewBox="0 0 87 32" fill="none" xmlns="http://www.w3.org/2000/svg">
<path d="M66.7273 10.532C66.3677 9.04372 66.4092 7.75863 67.2236 6.41017C67.9125 5.26639 69.0273 4.44879 70.3187 4.14018C72.2635 3.67403 75.0383 4.43095 76.682 5.51781C76.891 5.65603 77.1106 5.81102 77.3167 5.95616C76.5001 5.66287 75.9675 5.52806 75.0763 5.58371C74.8486 5.59792 74.6 5.63503 74.3803 5.64899C73.7778 5.25834 73.1755 4.93811 72.4381 4.93641C71.058 5.91191 70.5278 7.3944 70.9351 9.03264C71.4628 7.75399 72.2496 6.81594 73.5418 6.28108C74.7194 5.78683 76.0444 5.78975 77.2198 6.28924C78.969 7.0308 80.0803 8.77497 80.7618 10.4878C81.4314 12.1778 81.6316 14.0198 81.3406 15.8158C81.2257 16.5005 81.0795 17.0002 80.8711 17.6588C80.9125 16.5278 80.4994 15.7368 79.9135 14.8416C79.8431 14.7341 79.7971 14.464 79.7251 14.3383C79.423 13.6716 78.9604 12.9926 78.3919 12.5266C77.7513 12.9537 77.3824 13.1184 76.7257 13.4665C78.9538 13.8665 80.9177 15.7468 80.4599 18.1928C80.4446 18.2744 80.427 18.3627 80.4013 18.4413L80.3805 18.339C80.4841 18.1187 80.3746 17.7611 80.3658 17.4931C80.3436 17.5234 80.3473 17.523 80.3419 17.5601C80.298 17.5696 80.3211 17.5688 80.2673 17.5368C80.2225 17.4546 80.2288 17.3857 80.2249 17.2898L80.2232 17.25L80.1723 17.255C80.1223 17.0837 79.7713 16.9835 79.6877 17.0345C79.6999 17.1498 79.6959 17.3701 79.7137 17.4578L79.6786 17.4376C79.6118 16.6168 79.3803 16.0191 78.7904 15.4225C77.3622 13.9778 74.6334 13.7029 73.2215 15.309C72.6731 15.9308 72.6723 16.5043 72.4744 17.2474C72.3776 17.6063 72.2423 17.9536 72.0708 18.283C71.4931 17.3366 71.5847 17.3241 71.8236 16.3143C72.2843 14.3661 73.641 13.8666 75.2687 13.195C76.7274 12.5932 78.7667 11.732 79.2324 10.0699C79.4345 9.36694 79.0141 8.91664 78.6131 8.39972C78.0547 9.43922 77.2971 10.0329 76.3034 10.6114C76.9788 10.7582 77.4637 10.898 78.0761 11.2592C77.8832 11.4302 77.5786 11.6703 77.3503 11.8052C77.0085 11.682 76.762 11.5801 76.4028 11.4936C75.383 11.2538 74.3126 11.373 73.3692 11.8312C72.1645 12.4022 71.0664 13.4769 70.5098 14.7016C70.3263 14.5222 70.046 14.2789 69.8851 14.1068C70.2129 13.3337 71.3168 12.08 72.0334 11.645C73.745 10.6058 75.7395 9.55172 75.2563 7.09723C75.4755 7.09708 75.9076 7.07687 76.0847 7.1849C76.1746 7.34051 76.1675 7.88683 76.1526 8.07169C76.0906 8.84274 75.8057 9.53515 75.3557 10.1569C76.4956 9.56769 77.4406 8.97746 77.9988 7.76164C77.0223 7.00599 76.1043 6.62649 74.8442 6.79499C73.8158 6.92887 72.886 7.47945 72.2689 8.31974C71.7076 9.06933 71.4011 10.0718 71.5217 11.013C71.5429 11.179 71.5855 11.371 71.621 11.536C71.3799 11.7152 71.1702 11.8973 70.9423 12.0931C70.5617 11.0243 70.4882 9.84438 69.907 8.85159C69.4638 8.09453 68.811 7.5445 68.0233 7.17698C67.9482 7.14256 67.8723 7.10987 67.7957 7.07895C67.2276 8.33796 67.219 9.21667 67.5932 10.5398C67.2686 10.5219 67.05 10.5294 66.7273 10.532ZM69.2065 6.89459C69.4842 7.08666 69.741 7.30785 69.9725 7.5545C70.1059 6.47808 70.5031 5.66522 71.2303 4.87392C71.1717 4.87647 71.0425 4.87837 70.9904 4.8879C69.9245 4.98808 68.9737 5.52711 68.2902 6.35217L68.2725 6.37363C68.6786 6.56533 68.8351 6.6465 69.2065 6.89459ZM79.0501 11.9616C79.186 12.1346 79.3618 12.2665 79.4984 12.4295C79.8131 12.805 80.1278 13.2451 80.3471 13.6857C80.4507 13.9097 80.5442 14.1674 80.6467 14.3788C80.5864 13.2524 80.5217 12.359 80.148 11.2769C80.0942 11.1213 79.99 10.7791 79.9083 10.652C79.6793 11.212 79.4809 11.5254 79.0501 11.9616Z" fill="white"/>
<path d="M74.115 15.0012C74.3231 14.8978 74.9595 14.5905 75.1248 14.6936C75.8082 15.1198 76.5276 16.1989 76.7814 16.8668C77.2753 18.1458 77.2423 19.5705 76.6898 20.8249C76.0307 22.2575 74.8368 23.3694 73.3679 23.9176C71.4301 24.6488 69.1057 24.3084 67.2602 23.452C66.1864 22.9591 65.2077 22.2783 64.3695 21.4411C64.1944 21.2681 64.0454 21.105 63.8836 20.9188C63.83 20.8569 63.6788 20.6767 63.6256 20.6296C63.6748 20.5958 63.6736 20.5915 63.7155 20.5468C64.0818 20.7747 64.3905 20.994 64.8003 21.1448C64.8581 21.166 65.5239 21.3969 65.5384 21.4081C67.7933 23.1555 70.456 22.878 72.2616 20.6851C72.4845 20.8099 72.7378 20.9669 72.954 21.106C72.87 21.2624 72.686 21.4816 72.5658 21.6134C71.911 22.3255 71.0817 22.8511 70.1617 23.1372C69.9356 23.2059 69.6999 23.2533 69.468 23.2972C71.0107 23.6496 72.6351 23.5446 73.9979 22.674C75.1118 21.9625 75.8996 20.9758 76.1933 19.6658C76.4351 18.5743 76.2402 17.4306 75.6507 16.4831C75.3024 15.9302 74.8774 15.5231 74.3412 15.1634C74.2708 15.1161 74.179 15.0545 74.115 15.0012Z" fill="white"/>
<path d="M68.7861 4.35599L68.8192 4.34838L68.8172 4.37003C68.2599 4.67849 67.6874 5.22168 67.2901 5.71587C67.1768 5.82903 67.0481 6.11241 66.936 6.20669C65.5538 7.36856 64.9387 8.97716 65.4084 10.8056C65.1045 10.904 64.9146 10.9906 64.6333 11.1365C64.2752 9.93872 64.3523 8.80476 64.8318 7.65683C63.3112 9.19757 62.1585 11.521 62.9429 13.6945C63.698 15.7863 65.6661 16.8367 67.7698 16.0728C68.1701 15.9162 68.5522 15.6203 68.8873 15.3544C69.1156 15.4706 69.341 15.6861 69.5083 15.8793C69.0501 16.4272 68.1101 16.9011 67.4175 17.0595C66.2968 17.3245 65.1175 17.1263 64.1428 16.5088C63.048 15.7998 62.2749 14.6839 61.9916 13.4035C61.6299 11.7697 62.0743 10.095 62.9468 8.70391C63.9508 7.10208 65.3811 5.81701 67.0745 4.99524C67.5389 4.76549 68.2856 4.46957 68.7861 4.35599Z" fill="white"/>
<path d="M67.2076 12.0589C67.2272 12.0585 67.2469 12.0584 67.2665 12.0584C68.3449 12.0611 68.1282 12.2133 68.6208 13.0429C68.7203 13.2079 68.8277 13.3679 68.9426 13.5223C69.1543 13.8108 69.3862 14.0837 69.6364 14.3389C70.0584 14.7687 70.4624 15.0798 70.7568 15.6342C71.0183 16.1269 71.0368 16.4435 71.1528 16.9547C71.3448 17.8138 71.7702 18.6023 72.3818 19.2314C73.2185 20.0662 74.3458 20.5386 75.5229 20.5475C75.3788 20.8364 75.2024 21.1077 74.9969 21.3562C74.1374 21.303 73.3305 20.9438 72.6124 20.4881C71.5336 19.7597 70.7506 18.6643 70.406 17.4023C70.2249 16.7193 70.225 16.1379 69.7016 15.5777C68.8248 14.6391 67.4969 14.3231 66.4652 13.6217C66.0087 13.3113 65.6655 12.9271 65.3267 12.4997C65.58 12.3592 65.8391 12.2653 66.1166 12.1878C66.1879 12.2547 66.2631 12.3352 66.3294 12.4071C66.7707 12.8856 67.2909 13.2055 67.8878 13.4524C67.5886 12.8849 67.4498 12.7035 67.2076 12.0589Z" fill="white"/>
<path d="M61.512 12.2879C61.5484 12.3312 61.5435 12.6521 61.5477 12.7281C61.6101 13.8443 62.0542 14.7658 62.691 15.6554C62.6687 15.827 62.6484 15.9879 62.6413 16.1614C62.6064 17.1877 62.9803 18.1854 63.6796 18.9321C64.4962 19.8258 65.6357 20.3498 66.8404 20.3852C68.3247 20.4271 69.5408 19.7815 70.5908 18.7779C70.6903 18.9477 70.9754 19.3525 71.0322 19.4784C71.0156 19.5538 70.9658 19.5853 70.9076 19.6394C69.7684 20.6805 68.1703 21.313 66.6272 21.2126C65.2091 21.1213 63.8872 20.4576 62.9602 19.3716C61.7884 18.0161 61.2742 15.7172 61.3326 13.9478C61.3451 13.6352 61.3721 13.3233 61.4137 13.0133C61.4439 12.7973 61.4981 12.5239 61.5108 12.3123L61.512 12.2879Z" fill="white"/>
<path d="M79.6786 17.4376L79.7137 17.4578C79.6959 17.3701 79.6999 17.1498 79.6877 17.0345C79.7713 16.9835 80.1223 17.0837 80.1723 17.255L80.2232 17.25L80.2249 17.2898C80.2288 17.3857 80.2225 17.4546 80.2673 17.5368C80.3211 17.5688 80.298 17.5696 80.3419 17.5601C80.3473 17.523 80.3436 17.5234 80.3658 17.4931C80.3746 17.7611 80.4841 18.1187 80.3805 18.339L80.4013 18.4413C80.4009 18.4944 80.3312 18.7317 80.3112 18.7874C79.9923 19.6785 79.3513 20.5239 78.7032 21.1978C77.6477 22.3075 76.3593 23.165 74.9326 23.7075C74.8452 23.7409 74.2839 23.9371 74.2036 23.9384C74.3664 23.8288 74.5418 23.7403 74.7042 23.635C75.0889 23.3811 75.4461 23.0868 75.7698 22.7576C75.961 22.5638 76.2421 22.1514 76.4236 22.0099C76.8543 21.6739 77.2685 21.3945 77.6772 21.0205C77.412 21.1207 77.1419 21.2058 76.8675 21.2761C77.0328 20.9122 77.1108 20.6436 77.2524 20.2886C78.4963 19.683 79.6358 18.9975 79.6786 17.4376Z" fill="white"/>
<path d="M67.0994 10.8625C68.5951 10.8775 69.632 11.2969 70.7266 12.3179C70.5404 12.5254 70.361 12.739 70.1887 12.9584C68.9391 11.8327 67.7042 11.4633 66.0467 11.8375C64.7789 12.2193 64.1321 12.7888 63.3811 13.843C63.2138 13.4852 63.1665 13.2424 63.0882 12.8622C63.1721 12.7331 63.2557 12.6372 63.3609 12.5255C64.3719 11.4529 65.6452 10.9049 67.0994 10.8625Z" fill="white"/>
<path d="M73.5769 15.4419C73.6198 15.4605 73.6173 15.4493 73.6337 15.4944C74.1448 16.8926 74.165 18.358 73.6767 19.7645L73.3958 19.5981C73.2309 19.4904 73.1141 19.4104 72.9599 19.2888C73.2782 18.2131 73.253 17.4421 73.0551 16.388C73.0131 16.1644 73.4034 15.6221 73.5769 15.4419Z" fill="white"/>
<path d="M72.1843 13.037C72.1992 13.0478 72.8231 13.9348 72.8773 14.0202C72.645 14.254 72.5242 14.3382 72.3 14.6133C72.1811 14.5195 71.6822 13.7928 71.5904 13.6416C71.7923 13.4216 71.9687 13.2434 72.1843 13.037Z" fill="white"/>
<path d="M63.3195 20.2424C63.4511 20.3388 63.5857 20.4466 63.7155 20.5468C63.6736 20.5915 63.6748 20.5958 63.6256 20.6296C63.5246 20.4998 63.4225 20.3706 63.3195 20.2424Z" fill="white"/>
<path d="M13.2657 9.52706L13.5421 9.57732L13.2406 11.8141C12.5117 12.1911 11.5944 12.2916 10.941 12.2916C8.52829 12.2916 7.35965 10.5575 7.35965 7.55419C7.35965 4.75196 8.88014 2.72883 10.9787 2.72883C11.5316 2.72883 11.9337 2.86706 12.2101 2.86706C12.4992 2.86706 12.6751 2.75396 12.7505 2.47751L13.0269 2.45238L13.3285 5.4054L13.0521 5.48079C12.5871 4.02313 11.7201 3.16864 10.7022 3.16864C9.43304 3.16864 8.67908 4.51321 8.67908 6.7751C8.67908 9.75325 9.58384 11.8266 11.1169 11.8266C12.1347 11.8266 12.9264 11.0476 13.2657 9.52706Z" fill="white"/>
<path d="M20.9884 12.1534H18.7642V11.1858C17.6961 11.9649 17.2689 12.279 16.5652 12.279C15.5347 12.279 15.0949 11.5879 15.0949 10.658V7.26517C15.0949 6.44838 14.7933 6.36042 13.9137 6.36042V6.12166C14.8939 6.12166 15.4719 5.83264 16.1505 5.24204L16.251 5.30487V10.0674C16.251 11.1983 16.829 11.5753 17.3694 11.5753C18.0228 11.5753 18.7642 10.8968 18.7642 10.3564V7.26517C18.7642 6.44838 18.4626 6.36042 17.583 6.36042V6.12166C18.5632 6.12166 19.1412 5.83264 19.8198 5.24204L19.9203 5.30487V10.4946C19.9203 11.8141 19.9706 11.8266 20.9884 11.9146V12.1534Z" fill="white"/>
<path d="M24.3489 11.9146V12.1534H21.0818V11.9146C22.0996 11.8392 22.1373 11.8141 22.1373 10.4946V4.02313C22.1373 3.20634 21.8357 3.11838 20.9561 3.11838V2.87962C21.9363 2.87962 22.5143 2.5906 23.1929 2L23.2934 2.06283V10.4946C23.2934 11.8141 23.4567 11.8266 24.3489 11.9146Z" fill="white"/>
<path d="M28.1134 11.3114L28.2517 11.5376C27.9124 11.9397 27.4097 12.279 26.7437 12.279C25.9521 12.279 25.3741 11.7889 25.3741 10.9093V5.88291L24.6075 5.75725V5.49336C25.55 5.49336 26.1908 4.90276 26.2914 3.98543H26.5301V5.31744L28.0632 5.49336V5.75725L26.5301 5.90804V10.7334C26.5301 11.4497 26.7689 11.7261 27.2213 11.7261C27.5982 11.7261 27.8873 11.5376 28.1134 11.3114Z" fill="white"/>
<path d="M35.3093 12.1534H33.0851V11.1858C32.017 11.9649 31.5897 12.279 30.886 12.279C29.8556 12.279 29.4158 11.5879 29.4158 10.658V7.26517C29.4158 6.44838 29.1142 6.36042 28.2346 6.36042V6.12166C29.2147 6.12166 29.7928 5.83264 30.4713 5.24204L30.5719 5.30487V10.0674C30.5719 11.1983 31.1499 11.5753 31.6903 11.5753C32.3437 11.5753 33.0851 10.8968 33.0851 10.3564V7.26517C33.0851 6.44838 32.7835 6.36042 31.9039 6.36042V6.12166C32.884 6.12166 33.4621 5.83264 34.1406 5.24204L34.2412 5.30487V10.4946C34.2412 11.8141 34.2914 11.8266 35.3093 11.9146V12.1534Z" fill="white"/>
<path d="M39.1222 11.9146V12.1534H35.5911V11.9146C36.609 11.8392 36.6467 11.8141 36.6467 10.4946V7.26517C36.6467 6.44838 36.3451 6.36042 35.4655 6.36042V6.12166C36.4456 6.12166 37.0237 5.83264 37.5766 5.24204L37.8027 5.30487V6.38555C38.4311 5.55619 38.9463 5.24204 39.5369 5.24204C40.0898 5.24204 40.4793 5.50593 40.4793 5.93317C40.4793 6.27245 40.2406 6.59917 39.8636 6.59917C39.3358 6.59917 39.3609 5.94574 38.896 5.94574C38.3431 5.94574 37.8027 6.7374 37.8027 8.40868V10.4946C37.8027 11.8141 37.853 11.8266 39.1222 11.9146Z" fill="white"/>
<path d="M43.5605 12.279C42.1908 12.279 40.9845 11.1481 40.9845 8.92389C40.9845 6.83793 42.0149 5.24204 43.7113 5.24204C44.7166 5.24204 45.8727 5.83264 45.8727 7.83064L42.216 8.20762C42.2285 9.97944 42.9071 11.5628 44.1135 11.5628C44.7166 11.5628 45.3701 11.1732 45.8978 10.6203L46.0486 10.8214C45.5083 11.4748 44.7041 12.279 43.5605 12.279ZM43.548 5.60645C42.7815 5.60645 42.3416 6.43581 42.2411 7.61702H44.6789C44.6035 5.80751 43.925 5.60645 43.548 5.60645Z" fill="white"/>
<path d="M13.2657 23.2355L13.5421 23.2857L13.2406 25.5225C12.5117 25.8995 11.5944 26 10.941 26C8.52829 26 7.35965 24.2659 7.35965 21.2626C7.35965 18.4604 8.88014 16.4372 10.9787 16.4372C11.5316 16.4372 11.9337 16.5755 12.2101 16.5755C12.4992 16.5755 12.6751 16.4624 12.7505 16.1859L13.0269 16.1608L13.3285 19.1138L13.0521 19.1892C12.5871 17.7315 11.7201 16.8771 10.7022 16.8771C9.43304 16.8771 8.67908 18.2216 8.67908 20.4835C8.67908 23.4617 9.58384 25.5351 11.1169 25.5351C12.1347 25.5351 12.9264 24.756 13.2657 23.2355Z" fill="white"/>
<path d="M17.3568 18.9504C19.1412 18.9504 20.1213 20.2196 20.1213 22.293C20.1213 24.5172 18.9527 25.9874 17.1935 25.9874C15.3714 25.9874 14.4289 24.7183 14.4289 22.6574C14.4289 20.4207 15.5724 18.9504 17.3568 18.9504ZM17.4071 25.6607C18.2113 25.6607 18.8396 24.8439 18.8396 22.9088C18.8396 21.049 18.337 19.2772 17.1055 19.2772C16.2636 19.2772 15.7484 20.094 15.7484 22.004C15.7484 23.914 16.2259 25.6607 17.4071 25.6607Z" fill="white"/>
<path d="M24.0071 25.623V25.8618H20.853V25.623C21.8709 25.5476 21.9086 25.5225 21.9086 24.2031V20.9736C21.9086 20.1568 21.607 20.0688 20.7274 20.0688V19.8301C21.7075 19.8301 22.2856 19.5411 22.9641 18.9504L23.0646 19.0133V20.0437C24.1328 19.2646 24.56 18.9504 25.2637 18.9504C26.2941 18.9504 26.7339 19.6416 26.7339 21.0741V24.2031C26.7339 25.5225 26.7842 25.5351 27.802 25.623V25.8618H24.648V25.623C25.5402 25.5476 25.5779 25.5225 25.5779 24.2031V21.6647C25.5779 20.0311 24.9998 19.6541 24.4595 19.6541C23.806 19.6541 23.0646 20.3327 23.0646 21.5014V24.2031C23.0646 25.5225 23.1149 25.5351 24.0071 25.623Z" fill="white"/>
<path d="M31.2105 25.623V25.8618H28.0564V25.623C29.0743 25.5476 29.112 25.5225 29.112 24.2031V20.9736C29.112 20.1568 28.8104 20.0688 27.9307 20.0688V19.8301C28.9109 19.8301 29.4889 19.5411 30.1675 18.9504L30.268 19.0133V20.0437C31.3361 19.2646 31.7634 18.9504 32.4671 18.9504C33.4975 18.9504 33.9373 19.6416 33.9373 21.0741V24.2031C33.9373 25.5225 33.9876 25.5351 35.0054 25.623V25.8618H31.8514V25.623C32.7435 25.5476 32.7812 25.5225 32.7812 24.2031V21.6647C32.7812 20.0311 32.2032 19.6541 31.6629 19.6541C31.0094 19.6541 30.268 20.3327 30.268 21.5014V24.2031C30.268 25.5225 30.3183 25.5351 31.2105 25.623Z" fill="white"/>
<path d="M38.0997 25.9874C36.73 25.9874 35.5237 24.8565 35.5237 22.6323C35.5237 20.5463 36.5541 18.9504 38.2505 18.9504C39.2558 18.9504 40.4119 19.5411 40.4119 21.5391L36.7552 21.916C36.7677 23.6878 37.4463 25.2712 38.6526 25.2712C39.2558 25.2712 39.9092 24.8816 40.437 24.3287L40.5878 24.5298C40.0475 25.1832 39.2432 25.9874 38.0997 25.9874ZM38.0872 19.3149C37.3206 19.3149 36.8808 20.1442 36.7803 21.3254H39.2181C39.1427 19.5159 38.4641 19.3149 38.0872 19.3149Z" fill="white"/>
<path d="M43.9416 19.3149C43.0494 19.3149 42.5593 20.3955 42.5593 21.8658C42.5593 23.6501 43.2379 25.2712 44.4568 25.2712C45.0348 25.2712 45.7134 24.8816 46.2411 24.3287L46.3919 24.5298C45.8516 25.1832 45.0976 25.9874 43.9164 25.9874C42.4965 25.9874 41.3278 24.8314 41.3278 22.6323C41.3278 20.5463 42.308 18.9504 44.4191 18.9504C45.6003 18.9504 46.1406 19.428 46.1406 19.8929C46.1406 20.2322 45.9019 20.5966 45.4746 20.5966C44.6578 20.5966 44.9091 19.3149 43.9416 19.3149Z" fill="white"/>
<path d="M50.1899 25.0198L50.3281 25.246C49.9889 25.6481 49.4862 25.9874 48.8202 25.9874C48.0286 25.9874 47.4505 25.4974 47.4505 24.6177V19.5913L46.684 19.4657V19.2018C47.6264 19.2018 48.2673 18.6112 48.3678 17.6938H48.6066V19.0258L50.1397 19.2018V19.4657L48.6066 19.6164V24.4418C48.6066 25.1581 48.8454 25.4345 49.2977 25.4345C49.6747 25.4345 49.9637 25.246 50.1899 25.0198Z" fill="white"/>
</svg>
